<svg xmlns="http://www.w3.org/2000/svg" viewBox="0 0 24 24" fill="currentColor">
  <path d="M12 2C10.89 2 10 2.89 10 4C10 4.55 10.22 5.05 10.59 5.41L9.17 8.83C8.5 8.66 7.79 8.73 7.17 9.05L4.24 6.12C4.08 5.96 3.85 5.88 3.62 5.88C3.11 5.88 2.7 6.29 2.7 6.8C2.7 7.03 2.78 7.26 2.94 7.42L5.87 10.35C5.31 11.33 5.29 12.57 5.87 13.58L2.94 16.51C2.78 16.67 2.7 16.9 2.7 17.13C2.7 17.64 3.11 18.05 3.62 18.05C3.85 18.05 4.08 17.97 4.24 17.81L7.17 14.88C7.79 15.2 8.5 15.27 9.17 15.1L10.59 18.52C10.22 18.88 10 19.38 10 19.93C10 21.04 10.89 21.93 12 21.93C13.11 21.93 14 21.04 14 19.93C14 19.38 13.78 18.88 13.41 18.52L14.83 15.1C15.5 15.27 16.21 15.2 16.83 14.88L19.76 17.81C19.92 17.97 20.15 18.05 20.38 18.05C20.89 18.05 21.3 17.64 21.3 17.13C21.3 16.9 21.22 16.67 21.06 16.51L18.13 13.58C18.71 12.57 18.69 11.33 18.13 10.35L21.06 7.42C21.22 7.26 21.3 7.03 21.3 6.8C21.3 6.29 20.89 5.88 20.38 5.88C20.15 5.88 19.92 5.96 19.76 6.12L16.83 9.05C16.21 8.73 15.5 8.66 14.83 8.83L13.41 5.41C13.78 5.05 14 4.55 14 4C14 2.89 13.11 2 12 2Z"/>
</svg>
